<?xml version="1.0" encoding="UTF-8"?>
<svg width="30px" height="38px" viewBox="0 0 30 38" version="1.1" xmlns="http://www.w3.org/2000/svg" xmlns:xlink="http://www.w3.org/1999/xlink">
    <!-- Generator: Sketch 52.3 (67297) - http://www.bohemiancoding.com/sketch -->
    <title>OCP logo/Secondary 2</title>
    <desc>Created with Sketch.</desc>
    <defs>
        <polygon id="path-1" points="0.0978452381 0.0580816527 9.44784524 0.0580816527 9.44784524 9.02986719 0.0978452381 9.02986719"></polygon>
        <polygon id="path-3" points="0.0102619048 0.0658022627 3.59428571 0.0658022627 3.59428571 9.46818298 0.0102619048 9.46818298"></polygon>
    </defs>
    <g id="Symbols" stroke="none" stroke-width="1" fill="none" fill-rule="evenodd" opacity="0.8">
        <g id="OCP-logo/Secondary">
            <g id="OCP-logo/Secondary-2">
                <g id="OCP-logo/Secondary">
                    <path d="M4.25654762,7.17190359 C3.7552381,7.81375307 2.72738095,9.08186916 2.72738095,9.08186916 C3.6047619,8.30166257 5.00928571,9.00785047 7.31035714,6.28604033 C8.5875,5.01249385 10.0309524,4.23287752 11.7286905,3.81851451 L11.7067857,3.72643384 C9.61488095,4.15614363 8.05654762,5.22427939 6.66369048,6.33715691 C5.7697619,6.37753074 4.95988095,6.26585342 4.25654762,7.17190359 Z M7.7727381,3.65890802 C8.55130952,2.98542056 9.89869048,2.37733399 11.3213095,2.0386424 L11.2965476,1.9308608 C9.97166667,2.22422036 8.6902381,2.76383669 7.49869048,3.39919331 C6.80369048,3.45042794 6.11511905,3.64804722 5.65285714,4.06181997 C5.1702381,4.4936547 5.1125,5.02606985 5.41119048,5.33701918 C5.70988095,5.64785047 6.31714286,5.58422036 6.74595238,5.20090507 C7.21714286,4.7778062 7.54,4.218121 7.7727381,3.65890802 Z M10.932619,0.348607969 L10.9111905,0.248381702 C8.08345238,0.83639941 5.67809524,2.23626168 3.87333333,4.13961633 C3.79809524,4.21481554 3.72392857,4.28883424 3.67452381,4.35317265 C2.23547619,5.93046729 2.70988095,7.9145696 2.38095238,8.86406296 C2.38095238,8.86406296 3.96880952,6.55390064 4.1577381,6.28049188 C4.7452381,5.43334973 4.46238095,5.00316773 4.23511905,4.34821446 C5.9872619,2.21560256 8.24761905,0.943118544 10.932619,0.348607969 Z M11.6359524,0.208125922 C11.3982143,0.250034432 11.1647619,0.296901131 10.932619,0.348607969 L10.9111905,0.248381702 C11.1609524,0.195612395 11.412381,0.150398426 11.6677381,0.110142646 L11.6359524,0.208125922 Z" id="Fill-1" fill="#FFFFFF"></path>
                    <path d="M0.300938047,10.7348352 C0.299271381,13.33576 1.79819995,14.8205017 2.23855709,16.6139498 C2.24903329,16.6645942 2.26046186,16.7119331 2.27200948,16.7621053 L2.29462852,16.8698869 L2.28522376,16.8154648 C2.55593805,17.99091 2.99510471,19.10485 3.58105709,20.1333202 L3.58379519,20.1372159 C2.18034281,18.9470143 -0.985014334,16.5899852 0.300938047,10.7348352" id="Fill-3" fill="#FFFFFF"></path>
                    <path d="M2.84770318,14.3798131 C3.40008413,13.2517068 3.68996509,13.2767339 3.88163175,12.269513 C4.56020318,15.7230103 2.80817937,17.9749729 3.61472699,20.214304 C3.02889366,19.1858337 2.58972699,18.0718938 2.31901271,16.8963305 C2.12127461,15.797029 2.47103652,15.1502213 2.84770318,14.3798131" id="Fill-5" fill="#FFFFFF"></path>
                    <path d="M2.25252813,6.13080177 C1.42288527,8.19659616 2.11252813,9.9475455 1.97193289,11.5352287 C1.96586146,11.6256567 1.94562337,11.8706149 1.94562337,12.2724643 C1.94562337,12.8065322 1.98836146,13.3309198 2.07133765,13.8426758 L2.07133765,13.8443286 C1.79074241,12.3262961 -0.945805206,9.92417118 2.25252813,6.13080177" id="Fill-7" fill="#FFFFFF"></path>
                    <path d="M2.05011905,11.4993409 C2.03797619,11.6544614 2.23619048,10.6695524 3.03130952,9.91708805 C3.6802381,9.30073783 4.39785714,9.31112641 4.9047619,8.72794884 C4.29738095,11.9435711 2.21214286,11.8684899 2.14952381,13.806788 C2.06654762,13.2949139 2.02380952,12.7706444 2.02380952,12.2365765 C2.02380952,11.834727 2.04404762,11.5897688 2.05011905,11.4993409" id="Fill-9" fill="#FFFFFF"></path>
                    <path d="M5.2602381,22.9756616 L5.20809524,22.9066011 C7.17321429,25.4633743 10.6272619,27.3074668 13.9491667,27.8933596 C13.9491667,27.8933596 13.9507143,28.0545007 13.5653571,28.0376193 C11.6853571,27.9526217 2.70714286,26.1777078 0.357142857,17.1096508 C1.70845238,20.239213 3.63511905,21.3053419 5.2602381,22.9756616" id="Fill-11" fill="#FFFFFF"></path>
                    <path d="M5.26179989,23.0271323 C3.46525227,20.6172159 4.65620465,18.6969798 4.87584751,18.17212 C4.87584751,20.0570585 6.21989513,24.7514019 13.6240618,27.5805214 C13.8925142,27.6774422 14.0182285,27.848972 13.9963237,27.9692671 C10.6744189,27.3833743 7.22691894,25.5844958 5.26179989,23.0271323" id="Fill-13" fill="#FFFFFF"></path>
                    <g id="Group-17" transform="translate(18.095238, 0.110143)">
                        <mask id="mask-2" fill="white">
                            <use xlink:href="#path-1"></use>
                        </mask>
                        <g id="Clip-16"></g>
                        <path d="M5.16463095,6.28515494 C3.77165476,5.17227742 2.21225,4.10402361 0.120464286,3.67443187 L0.0978452381,3.76651254 C1.79784524,4.1807575 3.24022619,4.96049188 4.51832143,6.23392031 C6.81939286,8.9558485 8.22177381,8.2496606 9.09975,9.02986719 C9.09975,9.02986719 8.07082143,7.76175111 7.57117857,7.11978357 C6.86844048,6.21385145 6.05736905,6.32541072 5.16463095,6.28515494 Z M5.08177381,5.1489031 C5.51105952,5.5322184 6.11784524,5.5958485 6.41653571,5.28489916 C6.71510714,4.97406788 6.65689286,4.44153468 6.17594048,4.009818 C5.71308333,3.59604525 5.02296429,3.39842597 4.32939286,3.34719134 C3.13641667,2.71183473 1.85653571,2.1722184 0.531059524,1.87874078 L0.506416667,1.98652238 C1.92844048,2.32533202 3.2774881,2.93341859 4.0549881,3.60690605 C4.28891667,4.16611904 4.61165476,4.72580423 5.08177381,5.1489031 Z M7.59260714,4.29621249 C7.36522619,4.95128382 7.0824881,5.38134776 7.66891667,6.22860797 C7.85832143,6.50189867 9.44784524,8.81206099 9.44784524,8.81206099 C9.11784524,7.86244958 9.59272619,5.87846532 8.15320238,4.30117068 C8.10367857,4.23683227 8.0295119,4.16281358 7.95391667,4.08773242 C6.14963095,2.18425971 3.74475,0.784397442 0.917011905,0.196379734 L0.894630952,0.296606001 C3.58058333,0.891116576 5.83939286,2.16360059 7.59260714,4.29621249 Z M0.159392857,0.0580226267 C0.415702381,0.0983964584 0.66677381,0.143610428 0.917011905,0.196379734 L0.894630952,0.296606001 C0.66177381,0.244899164 0.428440476,0.198032464 0.191892857,0.156123955 L0.159392857,0.0581406788 L0.159392857,0.0580226267 Z" id="Fill-15" fill="#FFFFFF" mask="url(#mask-2)"></path>
                    </g>
                    <g id="Group-20" transform="translate(26.309524, 10.734835)">
                        <mask id="mask-4" fill="white">
                            <use xlink:href="#path-3"></use>
                        </mask>
                        <g id="Clip-19"></g>
                        <path d="M3.29311905,0.0658022627 C3.2952619,2.666727 1.79692857,4.15146877 1.3555,5.94491687 C1.34502381,5.99556124 1.33347619,6.04290015 1.32192857,6.09307231 L1.29835714,6.20085391 L1.30764286,6.14643187 C1.03752381,7.32187703 0.598238095,8.43581702 0.0124047619,9.46428726 L0.0102619048,9.46818298 C1.41252381,8.27798131 4.58014286,5.92095229 3.29311905,0.0658022627" id="Fill-18" fill="#FFFFFF" mask="url(#mask-4)"></path>
                    </g>
                    <path d="M27.146377,14.3798131 C26.5956627,13.2517068 26.3042342,13.2767339 26.1124485,12.269513 C25.4332818,15.7230103 27.1859008,17.9749729 26.378877,20.214304 C26.9647104,19.1858337 27.403877,18.0718938 27.6741151,16.8963305 C27.8732818,15.797029 27.5224485,15.1502213 27.146377,14.3798131" id="Fill-21" fill="#FFFFFF"></path>
                    <path d="M27.6190476,6.13080177 C28.4503571,8.19659616 27.7607143,9.9475455 27.900119,11.5352287 C27.905119,11.6256567 27.9265476,11.8706149 27.9265476,12.2724643 C27.9265476,12.8065322 27.8838095,13.3309198 27.8013095,13.8426758 L27.8013095,13.8443286 C28.0814286,12.3262961 30.8178571,9.92417118 27.6190476,6.13080177" id="Fill-23" fill="#FFFFFF"></path>
                    <path d="M27.9725,11.4993409 C27.985119,11.6544614 27.7869048,10.6695524 26.9914286,9.91708805 C26.342381,9.30073783 25.6247619,9.31112641 25.1190476,8.72794884 C25.7258333,11.9435711 27.81,11.8684899 27.8736905,13.806788 C27.9560714,13.2949139 27.9989286,12.7706444 27.9989286,12.2365765 C27.9989286,11.834727 27.9775,11.5897688 27.9725,11.4993409" id="Fill-25" fill="#FFFFFF"></path>
                    <path d="M24.6416667,22.9756616 L24.6938095,22.9066011 C22.7288095,25.4633743 19.2746429,27.3074668 15.952381,27.8933596 C15.952381,27.8933596 15.9517857,28.0545007 16.3360714,28.0376193 C18.2165476,27.9526217 27.1942857,26.1777078 29.5442857,17.1096508 C28.1925,20.239213 26.2663095,21.3053419 24.6416667,22.9756616" id="Fill-27" fill="#FFFFFF"></path>
                    <path d="M24.6886639,23.0271323 C26.4867591,20.6172159 25.2948544,18.6969798 25.0740211,18.17212 C25.0740211,20.0570585 23.7299734,24.7514019 16.3275925,27.5805214 C16.0579496,27.6774422 15.9328306,27.848972 15.9548544,27.9692671 C19.2771163,27.3833743 22.7252115,25.5844958 24.6886639,23.0271323" id="Fill-29" fill="#FFFFFF"></path>
                    <path d="M9.56630952,15.6857059 C10.442619,15.9683227 13.1791667,13.7930939 13.1955952,13.7817609 L13.1961905,13.7817609 C13.1961905,13.7817609 12.2583333,10.4288441 11.3820238,10.1445745 C11.3013095,10.3896508 11.1970238,10.6254009 11.0822619,10.8507624 C10.1971429,10.7473487 7.08571429,11.0741171 5.83333333,11.4105657 C6.6925,12.4700836 8.97666667,14.5413084 9.74202381,14.9632268 C9.70416667,15.1940187 9.64928571,15.4357895 9.56630952,15.6857059" id="Fill-31" fill="#FFFFFF"></path>
                    <path d="M12.1117857,13.4637285 L9.93035714,12.7624988 L5.83333333,11.4431481 C6.69369048,12.5043187 8.97714286,14.5738908 9.74202381,14.9959272 C9.70416667,15.2271913 9.64928571,15.4678997 9.56797619,15.7194688 C10.4421429,16.0019675 13.1808333,13.8274471 13.1961905,13.8137531 L12.1117857,13.4637285" id="Fill-33" fill="#FFFFFF"></path>
                    <path d="M13.8341667,15.9421971 C13.8341667,15.9421971 10.3289286,15.7892015 9.78761905,16.5302148 C9.99678571,16.6804952 10.1905952,16.8524971 10.3717857,17.0306378 C9.99785714,17.8315035 9.34892857,20.8691031 9.28571429,22.1541007 C10.5678571,21.6711494 13.2592857,20.1570126 13.9,19.564627 C14.1097619,19.6724086 14.3260714,19.7986063 14.5391667,19.9538449 C15.0810714,19.2155468 13.8417857,15.9634465 13.8341667,15.9438498 L13.8341667,15.9421971" id="Fill-35" fill="#FFFFFF"></path>
                    <path d="M13.8352381,15.9291294 L13.1642857,16.8439154 L9.28571429,22.1381997 C10.5694048,21.6569011 13.2592857,20.1427644 13.9005952,19.5503788 C14.1108333,19.6581604 14.3254762,19.7845942 14.5402381,19.9391244 C15.08,19.2018888 13.842381,15.9497885 13.8352381,15.9291294" id="Fill-37" fill="#FFFFFF"></path>
                    <path d="M20.2480482,16.5183908 C19.7072149,15.7811552 16.2036435,15.9445394 16.1829292,15.9445394 C16.1829292,15.9445394 14.9535244,19.2041951 15.4948339,19.9424932 C15.7051911,19.7917406 15.9292387,19.6637721 16.1553101,19.5472546 C16.8098339,20.1473136 19.5222149,21.6979285 20.7334054,22.1542 C20.6670959,20.7951838 20.0454292,17.7896943 19.6769768,17.0019324 C19.8461435,16.837958 20.0328101,16.6741016 20.2480482,16.5183908" id="Fill-39" fill="#FFFFFF"></path>
                    <path d="M18.2014726,18.6819872 L16.1825441,15.9291294 L16.1819488,15.9291294 C16.1819488,15.9291294 14.9532583,19.1878406 15.4951631,19.9272012 C15.704806,19.7763305 15.9294488,19.6457649 16.1561155,19.5307821 C16.8090917,20.1308411 19.5213536,21.6803935 20.7337345,22.1377275 L18.2014726,18.6819872" id="Fill-41" fill="#FFFFFF"></path>
                    <path d="M18.8780952,10.831756 C18.7715476,10.6237482 18.6727381,10.3962617 18.5909524,10.1445745 C17.717381,10.4271913 16.7917857,13.7783374 16.7857143,13.8012395 L16.7857143,13.8024201 C16.7857143,13.8024201 19.5288095,15.9677324 20.4055952,15.6851156 C20.3259524,15.4418101 20.2716667,15.190241 20.2303571,14.9397344 C21.0089286,14.508608 23.3342857,12.4303 24.1452381,11.4285096 C22.822619,11.0712838 19.7489286,10.7288146 18.8780952,10.831756" id="Fill-43" fill="#FFFFFF"></path>
                    <path d="M24.1480952,11.4431481 L20.049881,12.7635612 L17.8685714,13.4647909 L16.7857143,13.8164683 C16.7857143,13.8164683 19.5304762,15.9829611 20.4079762,15.7004624 C20.3266667,15.4559764 20.2716667,15.2033448 20.2317857,14.9550812 C21.0097619,14.5226562 23.3344048,12.4450566 24.1480952,11.4431481" id="Fill-45" fill="#FFFFFF"></path>
                    <path d="M17.8992857,9.67413674 C17.6390476,9.67413674 17.3809524,9.64804722 17.130119,9.60932612 C16.9554762,8.74364978 15.6810714,5.90697491 14.9711905,4.83222823 C14.22,5.9696606 12.9413095,8.76324643 12.7727381,9.61593704 C12.5377381,9.65135268 12.2895238,9.67413674 12.0238095,9.67413674 C12.0238095,10.5731038 14.8772619,12.443876 14.9689286,12.5043187 L14.9689286,12.5086867 L14.9733333,12.5070339 C14.9733333,12.5070339 17.8992857,10.5883325 17.8992857,9.67413674" id="Fill-47" fill="#FFFFFF"></path>
                    <path d="M17.1616667,9.60932612 C16.9865476,8.74364978 15.7121429,5.90909985 15.0027381,4.83222823 L15.0005952,9.10252828 L15.0005952,11.3762125 L15,12.5059715 L15.0044048,12.5070339 C15.0044048,12.5070339 17.9292857,10.5883325 17.9292857,9.67413674 C17.670119,9.67413674 17.4130952,9.64804722 17.1616667,9.60932612" id="Fill-49" fill="#FFFFFF"></path>
                    <path d="M16.9545238,30.803699 C14.442619,30.803699 11.9059524,31.899695 11.9059524,34.3480964 C11.9059524,35.4980423 12.4594048,36.4383276 13.4982143,37.0673094 C14.375119,37.5953566 15.5764286,37.8893064 16.8782143,37.8893064 C17.7084524,37.8893064 18.5139286,37.7854206 19.3721429,37.5016232 L18.8992857,36.34424 C18.3414286,36.4759862 17.8566667,36.5183669 17.4354762,36.5183669 C15.3957143,36.5183669 14.2235714,35.7295425 14.2235714,34.3480964 C14.2235714,32.9929759 15.4528571,32.1457157 17.4316667,32.1457157 C17.822619,32.1457157 18.1942857,32.1827841 18.6714286,32.2884407 L19.3814286,31.1852435 C18.5183333,30.8352189 17.7265476,30.803699 16.9545238,30.803699 M6.35607143,30.803699 C4.15440476,30.803699 1.78571429,31.9094934 1.78571429,34.3388883 C1.78571429,36.7835121 4.15440476,37.8947368 6.35607143,37.8947368 C8.55892857,37.8947368 10.9291667,36.7835121 10.9291667,34.3388883 C10.9291667,31.9094934 8.55892857,30.803699 6.35607143,30.803699 M6.35607143,36.6463355 C5.02738095,36.6463355 4.10166667,35.6956616 4.10166667,34.3388883 C4.10166667,32.9575603 5.00761905,32.0270733 6.35607143,32.0270733 C7.70619048,32.0270733 8.61214286,32.9575603 8.61214286,34.3388883 C8.61214286,35.6956616 7.68261905,36.6463355 6.35607143,36.6463355 M23.689881,30.803699 C22.6790476,30.803699 21.7159524,30.9365076 20.6546429,31.2278603 L20.6546429,37.7815248 L22.9278571,37.7815248 L22.9278571,32.1267093 C23.1809524,32.0885785 23.4191667,32.0701623 23.6383333,32.0701623 C24.1544048,32.0701623 25.8267857,32.1827841 25.8267857,33.6637482 C25.8267857,34.7314117 24.8445238,35.2149533 23.8667857,35.2149533 C23.8238095,35.2149533 23.720119,35.2089326 23.6383333,35.2045647 L23.1858333,36.1558288 C23.625119,36.2010428 23.8578571,36.2168618 24.0911905,36.2168618 C26.1079762,36.2168618 28.1432143,35.388608 28.1432143,33.5401476 C28.1432143,31.8757304 26.3171429,30.803699 23.689881,30.803699 M16.9545238,30.9544515 C17.6853571,30.9544515 18.4370238,30.9877423 19.1529762,31.261033 L18.600119,32.1175012 C18.2041667,32.0325037 17.8177381,31.9955534 17.4316667,31.9955534 C15.262381,31.9955534 14.069881,32.9929759 14.069881,34.3480964 C14.069881,35.7631874 15.2486905,36.6713625 17.4354762,36.6713625 C17.8697619,36.6713625 18.3705952,36.6131628 18.804881,36.5183669 L19.1661905,37.4074176 C18.4803571,37.6252238 17.6853571,37.7385539 16.8782143,37.7385539 C14.5095238,37.7385539 12.0591667,36.7373537 12.0591667,34.3480964 C12.0591667,31.9519921 14.5804762,30.9544515 16.9545238,30.9544515 M6.35607143,30.9544515 C8.49738095,30.9544515 10.7760714,32.0085391 10.7760714,34.3388883 C10.7760714,36.6327595 8.54571429,37.7439843 6.35607143,37.7439843 C4.16857143,37.7439843 1.9377381,36.6327595 1.9377381,34.3388883 C1.9377381,32.0085391 4.21642857,30.9544515 6.35607143,30.9544515 M6.35607143,36.7972061 C7.76880952,36.7972061 8.76535714,35.7725135 8.76535714,34.3388883 C8.76535714,32.9031382 7.81107143,31.8757304 6.35607143,31.8757304 C4.90333333,31.8757304 3.94952381,32.9031382 3.94952381,34.3388883 C3.94952381,35.7725135 4.94559524,36.7972061 6.35607143,36.7972061 M23.689881,30.9544515 C26.2358333,30.9544515 27.9911905,31.985755 27.9911905,33.5401476 C27.9911905,35.3646434 25.8746429,36.0654009 24.0911905,36.0654009 C23.8578571,36.0654009 23.6289286,36.0506444 23.4142857,36.0262076 L23.7338095,35.3608657 C23.7909524,35.3646434 23.82,35.3646434 23.8667857,35.3646434 C24.9729762,35.3646434 25.98,34.7940974 25.98,33.6637482 C25.98,32.4332907 24.8967857,31.9181112 23.6383333,31.9181112 C23.3571429,31.9181112 23.0666667,31.9470339 22.7746429,31.9955534 L22.7746429,37.6290015 L20.8066667,37.6290015 L20.8066667,31.3416626 C21.7627381,31.0889129 22.7163095,30.9544515 23.689881,30.9544515" id="Fill-51" fill="#FFFFFF"></path>
                    <path d="M16.9215476,30.9217511 C17.652381,30.9217511 18.4040476,30.9549238 19.12,31.2283325 L18.5670238,32.0848008 C18.1711905,31.9998032 17.7846429,31.9627349 17.3986905,31.9627349 C15.2294048,31.9627349 14.0367857,32.9602755 14.0367857,34.315396 C14.0367857,35.7303689 15.2157143,36.6386621 17.4025,36.6386621 C17.8367857,36.6386621 18.337619,36.5804624 18.7719048,36.4856665 L19.1332143,37.3747172 C18.447381,37.5925234 17.652381,37.7057354 16.8452381,37.7057354 C14.4765476,37.7057354 12.0261905,36.7044171 12.0261905,34.315396 C12.0261905,31.9191736 14.5475,30.9217511 16.9215476,30.9217511 M6.32309524,30.9217511 C4.18345238,30.9217511 1.9047619,31.9758387 1.9047619,34.3061879 C1.9047619,36.600059 4.13559524,37.7112838 6.32309524,37.7112838 C8.5127381,37.7112838 10.7429762,36.600059 10.7429762,34.3061879 C10.7429762,31.9758387 8.46440476,30.9217511 6.32309524,30.9217511 M6.32309524,36.7643876 C4.91261905,36.7643876 3.91654762,35.7398131 3.91654762,34.3061879 C3.91654762,32.8703197 4.8702381,31.84303 6.32309524,31.84303 C7.77809524,31.84303 8.73238095,32.8704378 8.73238095,34.3061879 C8.73238095,35.7398131 7.73583333,36.7643876 6.32309524,36.7643876 M23.6569048,30.9217511 C26.2028571,30.9217511 27.9582143,31.9529365 27.9582143,33.5073291 C27.9582143,35.3318249 25.8416667,36.0327004 24.0582143,36.0327004 C23.824881,36.0327004 23.5959524,36.0179439 23.3813095,35.9935071 L23.7008333,35.3280472 C23.7579762,35.3318249 23.7870238,35.3318249 23.8338095,35.3318249 C24.94,35.3318249 25.9470238,34.7612789 25.9470238,33.6309297 C25.9470238,32.4004722 24.8636905,31.8854107 23.6053571,31.8854107 C23.3241667,31.8854107 23.0336905,31.9142154 22.7416667,31.9627349 L22.7416667,37.5964191 L20.7736905,37.5964191 L20.7736905,31.3088441 C21.7297619,31.0563305 22.6833333,30.9217511 23.6569048,30.9217511" id="Fill-53" fill="#FFFFFF"></path>
                </g>
            </g>
        </g>
    </g>
</svg>